{
  "accessors": [
    {
      "bufferView": 2,
      "componentType": 5126,
      "count": 310,
      "max": [
        -0.13413314521312714,
        -2.3795766830444336,
        3.9398715496063232
      ],
      "min": [
        -0.7517514228820801,
        -2.398632526397705,
        2.969273090362549
      ],
      "type": "VEC3"
    },
    {
      "bufferView": 2,
      "byteOffset": 3720,
      "componentType": 5126,
      "count": 310,
      "max": [
        0.9268067479133606,
        0.9854053258895874,
        0.9268067479133606
      ],
      "min": [
        -0.9268067479133606,
        -0.9983579516410828,
        -0.9268067479133606
      ],
      "type": "VEC3"
    },
    {
      "bufferView": 1,
      "componentType": 5126,
      "count": 310,
      "max": [
        1.0000001192092896,
        1.0000001192092896
      ],
      "min": [
        0.0,
        0.0
      ],
      "type": "VEC2"
    },
    {
      "bufferView": 0,
      "componentType": 5125,
      "count": 1818,
      "type": "SCALAR"
    },
    {
      "bufferView": 2,
      "byteOffset": 7440,
      "componentType": 5126,
      "count": 323,
      "max": [
        1.4780189990997314,
        -1.048874020576477,
        3.925633668899536
      ],
      "min": [
        1.3368420600891113,
        -1.5360667705535889,
        3.1594886779785156
      ],
      "type": "VEC3"
    },
    {
      "bufferView": 2,
      "byteOffset": 11316,
      "componentType": 5126,
      "count": 323,
      "max": [
        0.9998323917388916,
        0.993541955947876,
        0.9887775182723999
      ],
      "min": [
        -0.9940101504325867,
        -0.9983210563659668,
        -0.9887691736221313
      ],
      "type": "VEC3"
    },
    {
      "bufferView": 1,
      "byteOffset": 2480,
      "componentType": 5126,
      "count": 323,
      "max": [
        1.0,
        1.0
      ],
      "min": [
        0.0,
        0.0
      ],
      "type": "VEC2"
    },
    {
      "bufferView": 0,
      "byteOffset": 7272,
      "componentType": 5125,
      "count": 1572,
      "type": "SCALAR"
    },
    {
      "bufferView": 2,
      "byteOffset": 15192,
      "componentType": 5126,
      "count": 1550,
      "max": [
        1.6332206726074219,
        1.2459932565689087,
        4.923240661621094
      ],
      "min": [
        0.8686797618865967,
        -2.429032802581787,
        2.161882162094116
      ],
      "type": "VEC3"
    },
    {
      "bufferView": 2,
      "byteOffset": 33792,
      "componentType": 5126,
      "count": 1550,
      "max": [
        0.9977858066558838,
        0.999987006187439,
        1.0
      ],
      "min": [
        -0.9999423027038574,
        -0.9998856782913208,
        -1.0
      ],
      "type": "VEC3"
    },
    {
      "bufferView": 1,
      "byteOffset": 5064,
      "componentType": 5126,
      "count": 1550,
      "max": [
        1.0,
        1.0000001192092896
      ],
      "min": [
        -0.08055456727743149,
        -2.1816504158778116e-09
      ],
      "type": "VEC2"
    },
    {
      "bufferView": 0,
      "byteOffset": 13560,
      "componentType": 5125,
      "count": 7473,
      "type": "SCALAR"
    },
    {
      "bufferView": 2,
      "byteOffset": 52392,
      "componentType": 5126,
      "count": 3941,
      "max": [
        1.540605068206787,
        0.27553218603134155,
        4.47651481628418
      ],
      "min": [
        1.5154879093170166,
        -0.27553218603134155,
        2.608607053756714
      ],
      "type": "VEC3"
    },
    {
      "bufferView": 2,
      "byteOffset": 99684,
      "componentType": 5126,
      "count": 3941,
      "max": [
        1.0,
        0.9999165534973145,
        1.0
      ],
      "min": [
        -0.9581872224807739,
        -0.9998856782913208,
        -1.0
      ],
      "type": "VEC3"
    },
    {
      "bufferView": 1,
      "byteOffset": 17464,
      "componentType": 5126,
      "count": 3941,
      "max": [
        1.0,
        1.0000001192092896
      ],
      "min": [
        0.0,
        0.0
      ],
      "type": "VEC2"
    },
    {
      "bufferView": 0,
      "byteOffset": 43452,
      "componentType": 5125,
      "count": 16779,
      "type": "SCALAR"
    },
    {
      "bufferView": 2,
      "byteOffset": 146976,
      "componentType": 5126,
      "count": 416,
      "max": [
        1.1845920085906982,
        1.0851882696151733,
        4.745052814483643
      ],
      "min": [
        0.8686796426773071,
        -1.0851882696151733,
        2.3400697708129883
      ],
      "type": "VEC3"
    },
    {
      "bufferView": 2,
      "byteOffset": 151968,
      "componentType": 5126,
      "count": 416,
      "max": [
        -0.4293997883796692,
        0.6532860398292542,
        0.8959164619445801
      ],
      "min": [
        -1.0,
        -0.6572318077087402,
        -0.8003255128860474
      ],
      "type": "VEC3"
    },
    {
      "bufferView": 1,
      "byteOffset": 48992,
      "componentType": 5126,
      "count": 416,
      "max": [
        0.0,
        0.0
      ],
      "min": [
        0.0,
        0.0
      ],
      "type": "VEC2"
    },
    {
      "bufferView": 0,
      "byteOffset": 110568,
      "componentType": 5125,
      "count": 2394,
      "type": "SCALAR"
    },
    {
      "bufferView": 2,
      "byteOffset": 156960,
      "componentType": 5126,
      "count": 896,
      "max": [
        1.0768691301345825,
        1.338945984840393,
        5.026625156402588
      ],
      "min": [
        0.8599493503570557,
        -1.338945984840393,
        2.058497428894043
      ],
      "type": "VEC3"
    },
    {
      "bufferView": 2,
      "byteOffset": 167712,
      "componentType": 5126,
      "count": 896,
      "max": [
        0.9981354475021362,
        0.9965384602546692,
        0.9979676604270935
      ],
      "min": [
        -0.9983014464378357,
        -0.9965384602546692,
        -0.9979676604270935
      ],
      "type": "VEC3"
    },
    {
      "bufferView": 1,
      "byteOffset": 52320,
      "componentType": 5126,
      "count": 896,
      "max": [
        0.0,
        0.0
      ],
      "min": [
        0.0,
        0.0
      ],
      "type": "VEC2"
    },
    {
      "bufferView": 0,
      "byteOffset": 120144,
      "componentType": 5125,
      "count": 5376,
      "type": "SCALAR"
    },
    {
      "bufferView": 2,
      "byteOffset": 178464,
      "componentType": 5126,
      "count": 415,
      "max": [
        1.0227108001708984,
        -2.3356640338897705,
        4.214411735534668
      ],
      "min": [
        -0.9952701926231384,
        -2.4921488761901855,
        2.684227466583252
      ],
      "type": "VEC3"
    },
    {
      "bufferView": 2,
      "byteOffset": 183444,
      "componentType": 5126,
      "count": 415,
      "max": [
        0.9994746446609497,
        0.9997807741165161,
        1.0
      ],
      "min": [
        -0.9978610277175903,
        -0.9896147847175598,
        -0.9994746446609497
      ],
      "type": "VEC3"
    },
    {
      "bufferView": 1,
      "byteOffset": 59488,
      "componentType": 5126,
      "count": 415,
      "max": [
        1.001279354095459,
        1.0
      ],
      "min": [
        0.0,
        0.0
      ],
      "type": "VEC2"
    },
    {
      "bufferView": 0,
      "byteOffset": 141648,
      "componentType": 5125,
      "count": 1524,
      "type": "SCALAR"
    },
    {
      "bufferView": 2,
      "byteOffset": 188424,
      "componentType": 5126,
      "count": 1618,
      "max": [
        0.5697452425956726,
        -2.378145694732666,
        3.948484182357788
      ],
      "min": [
        -0.08782538771629333,
        -2.4000627994537354,
        2.796658515930176
      ],
      "type": "VEC3"
    },
    {
      "bufferView": 2,
      "byteOffset": 207840,
      "componentType": 5126,
      "count": 1618,
      "max": [
        1.0,
        1.0,
        1.0
      ],
      "min": [
        -1.0,
        -1.0,
        -1.0
      ],
      "type": "VEC3"
    },
    {
      "bufferView": 1,
      "byteOffset": 62808,
      "componentType": 5126,
      "count": 1618,
      "max": [
        1.0000001192092896,
        1.0000001192092896
      ],
      "min": [
        0.0,
        -0.07195776700973511
      ],
      "type": "VEC2"
    },
    {
      "bufferView": 0,
      "byteOffset": 147744,
      "componentType": 5125,
      "count": 2412,
      "type": "SCALAR"
    },
    {
      "bufferView": 3,
      "componentType": 5126,
      "count": 7,
      "max": [
        1.0,
        0.0,
        0.0,
        0.0,
        0.0,
        1.0,
        0.0,
        0.0,
        0.0,
        0.0,
        1.0,
        0.0,
        0.0,
        0.0,
        0.0,
        1.0
      ],
      "min": [
        1.0,
        0.0,
        0.0,
        0.0,
        0.0,
        1.0,
        0.0,
        0.0,
        0.0,
        0.0,
        1.0,
        0.0,
        0.0,
        0.0,
        0.0,
        1.0
      ],
      "type": "MAT4"
    },
    {
      "bufferView": 4,
      "componentType": 5126,
      "count": 98,
      "max": [
        6.233333110809326
      ],
      "min": [
        3.0
      ],
      "type": "SCALAR"
    },
    {
      "bufferView": 5,
      "componentType": 5126,
      "count": 98,
      "max": [
        -0.19445271790027618,
        1.499694585800171,
        2.393824338912964
      ],
      "min": [
        -0.4300663471221924,
        1.1223020553588867,
        2.393824338912964
      ],
      "type": "VEC3"
    },
    {
      "bufferView": 4,
      "byteOffset": 392,
      "componentType": 5126,
      "count": 107,
      "max": [
        6.166666507720947
      ],
      "min": [
        2.633333444595337
      ],
      "type": "SCALAR"
    },
    {
      "bufferView": 5,
      "byteOffset": 1176,
      "componentType": 5126,
      "count": 107,
      "max": [
        1.5312989950180054,
        1.5173089504241943,
        1.2881908416748047
      ],
      "min": [
        1.4978152513504028,
        1.5173089504241943,
        1.2881908416748047
      ],
      "type": "VEC3"
    },
    {
      "bufferView": 4,
      "byteOffset": 820,
      "componentType": 5126,
      "count": 107,
      "max": [
        6.166666507720947
      ],
      "min": [
        2.633333444595337
      ],
      "type": "SCALAR"
    },
    {
      "bufferView": 5,
      "byteOffset": 2460,
      "componentType": 5126,
      "count": 107,
      "max": [
        0.0,
        2.042586088180542,
        0.0
      ],
      "min": [
        0.0,
        1.9933485984802246,
        0.0
      ],
      "type": "VEC3"
    }
  ],
  "animations": [
    {
      "channels": [
        {
          "sampler": 0,
          "target": {
            "node": 9,
            "path": "translation"
          }
        },
        {
          "sampler": 1,
          "target": {
            "node": 13,
            "path": "translation"
          }
        },
        {
          "sampler": 2,
          "target": {
            "node": 8,
            "path": "translation"
          }
        }
      ],
      "name": "Scene",
      "samplers": [
        {
          "input": 33,
          "interpolation": "LINEAR",
          "output": 34
        },
        {
          "input": 35,
          "interpolation": "LINEAR",
          "output": 36
        },
        {
          "input": 37,
          "interpolation": "LINEAR",
          "output": 38
        }
      ]
    }
  ],
  "asset": {
    "extras": {
      "author": "Ahbangkun (https://sketchfab.com/Ahbangkun)",
      "license": "CC-BY-4.0 (http://creativecommons.org/licenses/by/4.0/)",
      "source": "https://sketchfab.com/3d-models/scouter-d2b39d4bc589438ea2b3910ed21d3531",
      "title": "Scouter"
    },
    "generator": "Sketchfab-12.68.0",
    "version": "2.0"
  },
  "bufferViews": [
    {
      "buffer": 0,
      "byteLength": 157392,
      "name": "floatBufferViews",
      "target": 34963
    },
    {
      "buffer": 0,
      "byteLength": 75752,
      "byteOffset": 157392,
      "byteStride": 8,
      "name": "floatBufferViews",
      "target": 34962
    },
    {
      "buffer": 0,
      "byteLength": 227256,
      "byteOffset": 233144,
      "byteStride": 12,
      "name": "floatBufferViews",
      "target": 34962
    },
    {
      "buffer": 0,
      "byteLength": 448,
      "byteOffset": 460400,
      "name": "floatBufferViews"
    },
    {
      "buffer": 0,
      "byteLength": 1248,
      "byteOffset": 460848,
      "name": "floatBufferViews"
    },
    {
      "buffer": 0,
      "byteLength": 3744,
      "byteOffset": 462096,
      "byteStride": 12,
      "name": "floatBufferViews"
    }
  ],
  "buffers": [
    {
      "byteLength": 465840,
      "uri": "scene.bin"
    }
  ],
  "materials": [
    {
      "alphaMode": "BLEND",
      "doubleSided": true,
      "emissiveFactor": [
        1.0,
        1.0,
        0.0
      ],
      "name": "YELLOW_HASH",
      "pbrMetallicRoughness": {
        "baseColorFactor": [
          0.8,
          0.8,
          0.8,
          0.3172758374253706
        ]
      }
    },
    {
      "doubleSided": true,
      "name": "RED_BUTTON",
      "pbrMetallicRoughness": {
        "baseColorFactor": [
          0.5413265886354285,
          0.02502637739705611,
          0.02502637739705611,
          1.0
        ],
        "metallicFactor": 0.8088940503628197,
        "roughnessFactor": 0.3961775259215044
      }
    },
    {
      "doubleSided": true,
      "name": "WHITE_METAL",
      "pbrMetallicRoughness": {
        "baseColorFactor": [
          0.8666754938916336,
          0.8666754938916336,
          0.8666754938916336,
          1.0
        ],
        "metallicFactor": 0.7664085257879785,
        "roughnessFactor": 0.5964664274886133
      }
    },
    {
      "doubleSided": true,
      "name": "METAL_GREY_WHITE",
      "pbrMetallicRoughness": {
        "baseColorFactor": [
          0.423196030698216,
          0.423196030698216,
          0.423196030698216,
          1.0
        ],
        "metallicFactor": 0.5964664274886133,
        "roughnessFactor": 0.33548391938601685
      }
    },
    {
      "doubleSided": true,
      "name": "EAR_PAD",
      "pbrMetallicRoughness": {
        "baseColorFactor": [
          0.035929369714675294,
          0.035929369714675294,
          0.035929369714675294,
          1.0
        ],
        "metallicFactor": 0.0,
        "roughnessFactor": 0.8254546363768598
      }
    },
    {
      "doubleSided": true,
      "name": "RING_EAR_GREY",
      "pbrMetallicRoughness": {
        "baseColorFactor": [
          0.22316217668121985,
          0.22316217668121985,
          0.22316217668121985,
          1.0
        ],
        "metallicFactor": 0.0,
        "roughnessFactor": 0.8956166896648329
      }
    },
    {
      "alphaMode": "BLEND",
      "doubleSided": true,
      "name": "RED_GLASS_BLEND",
      "pbrMetallicRoughness": {
        "baseColorFactor": [
          0.9740283683262523,
          0.00033853517073457497,
          0.00033853517073457497,
          0.45687113245699196
        ],
        "roughnessFactor": 0.09877885389761538
      }
    }
  ],
  "meshes": [
    {
      "name": "Circle.001_YELLOW HASH_0",
      "primitives": [
        {
          "attributes": {
            "NORMAL": 1,
            "POSITION": 0,
            "TEXCOORD_0": 2
          },
          "indices": 3,
          "material": 0,
          "mode": 4
        }
      ]
    },
    {
      "name": "Plane.004_RED BUTTON_0",
      "primitives": [
        {
          "attributes": {
            "NORMAL": 5,
            "POSITION": 4,
            "TEXCOORD_0": 6
          },
          "indices": 7,
          "material": 1,
          "mode": 4
        }
      ]
    },
    {
      "name": "Plane.002_WHITE METAL_0",
      "primitives": [
        {
          "attributes": {
            "NORMAL": 9,
            "POSITION": 8,
            "TEXCOORD_0": 10
          },
          "indices": 11,
          "material": 2,
          "mode": 4
        }
      ]
    },
    {
      "name": "Plane.002_METAL GREY WHITE_0",
      "primitives": [
        {
          "attributes": {
            "NORMAL": 13,
            "POSITION": 12,
            "TEXCOORD_0": 14
          },
          "indices": 15,
          "material": 3,
          "mode": 4
        }
      ]
    },
    {
      "name": "Plane.002_EAR PAD_0",
      "primitives": [
        {
          "attributes": {
            "NORMAL": 17,
            "POSITION": 16,
            "TEXCOORD_0": 18
          },
          "indices": 19,
          "material": 4,
          "mode": 4
        }
      ]
    },
    {
      "name": "Plane.002_RING EAR GREY_0",
      "primitives": [
        {
          "attributes": {
            "NORMAL": 21,
            "POSITION": 20,
            "TEXCOORD_0": 22
          },
          "indices": 23,
          "material": 5,
          "mode": 4
        }
      ]
    },
    {
      "name": "Plane.002_RED GLASS BLEND_0",
      "primitives": [
        {
          "attributes": {
            "NORMAL": 25,
            "POSITION": 24,
            "TEXCOORD_0": 26
          },
          "indices": 27,
          "material": 6,
          "mode": 4
        }
      ]
    },
    {
      "name": "Plane.002_YELLOW HASH_0",
      "primitives": [
        {
          "attributes": {
            "NORMAL": 29,
            "POSITION": 28,
            "TEXCOORD_0": 30
          },
          "indices": 31,
          "material": 0,
          "mode": 4
        }
      ]
    }
  ],
  "nodes": [
    {
      "children": [
        1
      ],
      "matrix": [
        1.0,
        0.0,
        0.0,
        0.0,
        0.0,
        2.220446049250313e-16,
        -1.0,
        0.0,
        0.0,
        1.0,
        2.220446049250313e-16,
        0.0,
        0.0,
        0.0,
        0.0,
        1.0
      ],
      "name": "Sketchfab_model"
    },
    {
      "children": [
        2
      ],
      "matrix": [
        0.009999999776482582,
        0.0,
        0.0,
        0.0,
        0.0,
        0.0,
        0.009999999776482582,
        0.0,
        0.0,
        -0.009999999776482582,
        0.0,
        0.0,
        0.0,
        0.0,
        0.0,
        1.0
      ],
      "name": "f1a93202e04245fc8ae71551c8adac58.fbx"
    },
    {
      "children": [
        3
      ],
      "name": "Object_2"
    },
    {
      "children": [
        4
      ],
      "name": "RootNode"
    },
    {
      "children": [
        5
      ],
      "name": "Armature",
      "rotation": [
        -0.7071068286895752,
        0.0,
        0.0,
        0.7071067094802856
      ],
      "scale": [
        100.0,
        100.0,
        100.0
      ]
    },
    {
      "children": [
        6
      ],
      "name": "Object_5"
    },
    {
      "children": [
        7
      ],
      "name": "_rootJoint"
    },
    {
      "children": [
        8
      ],
      "name": "Bone_00",
      "rotation": [
        0.7071068286895752,
        0.0,
        0.0,
        0.7071067094802856
      ]
    },
    {
      "children": [
        9,
        13,
        17
      ],
      "name": "Bone.003_01",
      "translation": [
        0.0,
        2.0443613529205322,
        0.0
      ]
    },
    {
      "children": [
        10,
        11
      ],
      "name": "Bone.001_02",
      "translation": [
        -0.293858140707016,
        1.3207733631134033,
        2.393824338912964
      ]
    },
    {
      "name": "Bone.001_end_04",
      "translation": [
        0.0,
        0.1964411735534668,
        0.0
      ]
    },
    {
      "children": [
        12
      ],
      "name": "Circle.001",
      "rotation": [
        -0.7071068286895752,
        0.0,
        0.0,
        0.7071067094802856
      ],
      "translation": [
        0.293858140707016,
        -3.3651347160339355,
        -2.393824338912964
      ]
    },
    {
      "mesh": 0,
      "name": "Circle.001_YELLOW HASH_0"
    },
    {
      "children": [
        14,
        15
      ],
      "name": "Bone.002_03",
      "rotation": [
        -2.6692543286799264e-08,
        -2.6692539734085585e-08,
        -0.7071068286895752,
        0.7071067094802856
      ],
      "translation": [
        1.5325318574905396,
        1.5173089504241943,
        1.2881908416748047
      ]
    },
    {
      "name": "Bone.002_end_05",
      "rotation": [
        2.124443668772181e-30,
        -6.617444900424222e-24,
        1.3234889800848443e-23,
        1.0
      ],
      "translation": [
        4.440892098500626e-16,
        0.36511921882629395,
        0.0
      ]
    },
    {
      "children": [
        16
      ],
      "name": "Plane.004",
      "rotation": [
        -0.4999999701976776,
        -0.5000000596046448,
        0.5000000596046448,
        0.4999999403953552
      ],
      "translation": [
        3.5616703033447266,
        -1.5325318574905396,
        -1.2881910800933838
      ]
    },
    {
      "mesh": 1,
      "name": "Plane.004_RED BUTTON_0"
    },
    {
      "children": [
        18,
        19,
        20,
        21,
        22,
        23
      ],
      "name": "Plane.002",
      "rotation": [
        -0.7071068286895752,
        0.0,
        0.0,
        0.7071067094802856
      ],
      "translation": [
        0.0,
        -2.0443613529205322,
        0.0
      ]
    },
    {
      "mesh": 2,
      "name": "Plane.002_WHITE METAL_0"
    },
    {
      "mesh": 3,
      "name": "Plane.002_METAL GREY WHITE_0"
    },
    {
      "mesh": 4,
      "name": "Plane.002_EAR PAD_0"
    },
    {
      "mesh": 5,
      "name": "Plane.002_RING EAR GREY_0"
    },
    {
      "mesh": 6,
      "name": "Plane.002_RED GLASS BLEND_0"
    },
    {
      "mesh": 7,
      "name": "Plane.002_YELLOW HASH_0"
    }
  ],
  "scene": 0,
  "scenes": [
    {
      "name": "Sketchfab_Scene",
      "nodes": [
        0
      ]
    }
  ],
  "skins": [
    {
      "inverseBindMatrices": 32,
      "joints": [
        6,
        7,
        8,
        9,
        10,
        13,
        14
      ],
      "skeleton": 6
    }
  ]
}
